# xmcd
#
# Track frame offsets: 
#        182
#        11427
#        23947
#        42852
#        57492
#        72562
#        89612
#        101507
#        115672
#        135095
#        149285
#        160075
#        172417
#        189607
#        206007
#        216682
#        232072
#        251035
#        266272
#        283252
#        297622
#        307622
#
# Disc length: 4314 seconds
#
# Revision: 4
# Processed by: cddbd v1.5.2PL0 Copyright (c) Steve Scherf et al.
# Submitted via: ExactAudioCopyFreeDBPlugin 1.0
#
DISCID=5510d816
DTITLE=Various Artist - Shut Up and Play Yer Blues
DYEAR=1995
DGENRE=Blues
TTITLE0=Ike Turner - Ho Ho
TTITLE1=Billy Boy Arnold - Riding the El
TTITLE2=Todd Sharpville - Sharpville Shuffle
TTITLE3=Muddy Waters Band, The - Boogie Thing
TTITLE4=Lacy Gibson - C.B. Blues
TTITLE5=Buddy Guy - We're Ready
TTITLE6=Troyce Key - Saturday Night Shakedown
TTITLE7=John Lee Hooker - Stomp Boogie
TTITLE8=U.P. Wilson - Hideaway
TTITLE9=Big Walter "Shaky" Horton - West Side Blues
TTITLE10=Jody Williams - Moanin' for Molasses
TTITLE11=Billy Boy Arnold - Blues in a Natural
TTITLE12=Matt "Guitar" Murphy - Taking Off
TTITLE13=Little Walter - Juke
TTITLE14=Hash Brown - Side Tracked
TTITLE15=Colin "Barrel House" Banagan - Honky Tonk Train Blues
TTITLE16=Eddie Clearwater - Blues at Theresa's
TTITLE17=King Curtis - Soul Groove, Pt. 2
TTITLE18=King Biscuit Boy - Necromonica
TTITLE19=Earl Hooker - Something You Ate
TTITLE20=Paul Lamb - Whoopin' (A Tribute Sonny Terry)
TTITLE21=Buddy Reed - Rialto Rock
EXTD=
EXTT0=
EXTT1=
EXTT2=
EXTT3=
EXTT4=
EXTT5=
EXTT6=
EXTT7=
EXTT8=
EXTT9=
EXTT10=
EXTT11=
EXTT12=
EXTT13=
EXTT14=
EXTT15=
EXTT16=
EXTT17=
EXTT18=
EXTT19=
EXTT20=
EXTT21=
PLAYORDER=
